HIERARCHY
ROOT Hips
{
	OFFSET 51.266701 -9.604353 84.410400
	CHANNELS 6 Xposition Yposition Zposition Xrotation Yrotation Zrotation
	JOINT spine
	{
		OFFSET 0.000000 -0.342408 5.954376
		CHANNELS 3 Xrotation Yrotation Zrotation
		JOINT spine1
		{
			OFFSET 0.000000 -0.000002 8.856018
			CHANNELS 3 Xrotation Yrotation Zrotation
			JOINT spine2
			{
				OFFSET 0.000000 -0.000001 8.485672
				CHANNELS 3 Xrotation Yrotation Zrotation
				JOINT Neck
				{
					OFFSET 0.000000 -1.038704 21.786301
					CHANNELS 3 Xrotation Yrotation Zrotation
					JOINT Head
					{
						OFFSET 0.000000 -0.000001 6.582199
						CHANNELS 3 Xrotation Yrotation Zrotation
						End Site
						{
							OFFSET 0.000000 5.254357 15.932602
						}
					}
				}
				JOINT RightShoulder
				{
					OFFSET -3.573071 0.497523 9.163864
					CHANNELS 3 Xrotation Yrotation Zrotation
					JOINT RightArm
					{
						OFFSET 0.000000 -0.000002 12.019196
						CHANNELS 3 Xrotation Yrotation Zrotation
						JOINT RightArmRoll
						{
							OFFSET 0.000000 -0.000001 6.067551
							CHANNELS 3 Xrotation Yrotation Zrotation
							JOINT RightForeArm
							{
								OFFSET 0.000000 -0.000003 17.672592
								CHANNELS 3 Xrotation Yrotation Zrotation
								JOINT RightForeArmRoll
								{
									OFFSET 0.000000 -0.000001 6.808716
									CHANNELS 3 Xrotation Yrotation Zrotation
									JOINT RightHand
									{
										OFFSET 0.000000 -0.000003 13.663605
										CHANNELS 3 Xrotation Yrotation Zrotation
										End Site
										{
											OFFSET 0.000000 0.000000 0.100006
										}
									}
								}
							}
						}
					}
				}
				JOINT LeftShoulder
				{
					OFFSET 3.573071 0.497523 9.163864
					CHANNELS 3 Xrotation Yrotation Zrotation
					JOINT LeftArm
					{
						OFFSET 0.000000 -0.000002 12.019196
						CHANNELS 3 Xrotation Yrotation Zrotation
						JOINT LeftArmRoll
						{
							OFFSET 0.000000 -0.000001 6.067551
							CHANNELS 3 Xrotation Yrotation Zrotation
							JOINT LeftForeArm
							{
								OFFSET 0.000000 -0.000003 17.672592
								CHANNELS 3 Xrotation Yrotation Zrotation
								JOINT LeftForeArmRoll
								{
									OFFSET 0.000000 -0.000001 6.808716
									CHANNELS 3 Xrotation Yrotation Zrotation
									JOINT LeftHand
									{
										OFFSET 0.000000 -0.000003 13.663605
										CHANNELS 3 Xrotation Yrotation Zrotation
										End Site
										{
											OFFSET 0.000000 0.000000 0.100006
										}
									}
								}
							}
						}
					}
				}
			}
		}
	}
	JOINT RightUpLeg
	{
		OFFSET -5.277740 0.811858 -0.967796
		CHANNELS 3 Xrotation Yrotation Zrotation
		JOINT RightUpLegRoll
		{
			OFFSET 0.000000 -0.000003 16.021400
			CHANNELS 3 Xrotation Yrotation Zrotation
			JOINT RightLeg
			{
				OFFSET 0.000000 0.000003 -19.840103
				CHANNELS 3 Xrotation Yrotation Zrotation
				JOINT RightLegRoll
				{
					OFFSET 0.000000 -0.000003 19.904999
					CHANNELS 3 Xrotation Yrotation Zrotation
					JOINT RightFoot
					{
						OFFSET 0.000000 -0.000003 16.567497
						CHANNELS 3 Xrotation Yrotation Zrotation
						JOINT RightToeBase
						{
							OFFSET 0.000000 -0.000002 13.849602
							CHANNELS 3 Xrotation Yrotation Zrotation
							End Site
							{
								OFFSET 0.005871 0.773116 6.707275
							}
						}
					}
				}
			}
		}
	}
	JOINT LeftUpLeg
	{
		OFFSET 5.277740 0.811858 -0.967796
		CHANNELS 3 Xrotation Yrotation Zrotation
		JOINT LeftUpLegRoll
		{
			OFFSET 0.000000 -0.000003 16.021500
			CHANNELS 3 Xrotation Yrotation Zrotation
			JOINT LeftLeg
			{
				OFFSET 0.000000 -0.000003 19.840004
				CHANNELS 3 Xrotation Yrotation Zrotation
				JOINT LeftLegRoll
				{
					OFFSET 0.000000 -0.000004 20.089005
					CHANNELS 3 Xrotation Yrotation Zrotation
					JOINT LeftFoot
					{
						OFFSET 0.000000 -0.000003 16.383499
						CHANNELS 3 Xrotation Yrotation Zrotation
						JOINT LeftToeBase
						{
							OFFSET 0.000000 -0.000002 13.849594
							CHANNELS 3 Xrotation Yrotation Zrotation
							End Site
							{
								OFFSET -0.026310 0.773116 6.707275
							}
						}
					}
				}
			}
		}
	}
}
MOTION
Frames: 11
Frame Time: 0.041667
48.115704 -5.463140 83.472397 5.299820 1.174564 20.331547 -0.197130 0.355639 0.062602 3.608218 0.711513 0.122544 5.253348 0.712883 0.113303 -12.499741 45.535912 -1.328097 9.303465 -43.290384 -10.410260 -9.522692 -1.971140 -5.391790 -94.700245 -165.661785 -99.815702 -0.000000 -0.000000 -0.000001 57.216321 2.940173 -4.057451 -0.000003 0.000002 -2.999379 -5.000151 -7.999927 0.000010 -48.671385 79.370500 53.728228 -77.737989 172.271933 108.842240 -0.000002 -0.000000 -0.000001 105.460102 -1.192467 4.706869 -0.000001 -0.000001 3.000000 -5.000165 7.999936 -0.000001 -14.128591 -182.498201 -1.008420 -179.999991 0.000005 -0.921002 163.559576 0.080573 -0.684221 0.000002 0.000004 0.189800 68.814538 6.869679 2.200811 25.456899 -7.361245 0.000000 -20.749995 178.617848 2.747347 -0.000005 -0.000004 -0.849870 -18.188336 -0.111728 0.599518 0.000001 -0.000001 -0.291532 70.054628 -6.838218 -2.198088 25.456955 7.355612 0.000001 
48.150799 -5.457219 83.495399 5.265318 1.223821 20.252920 -0.199331 0.347421 0.062390 3.603816 0.695077 0.122123 5.248939 0.696443 0.112974 -12.447443 45.328260 -1.309888 9.158221 -43.180162 -10.365115 -9.374191 -2.333520 -5.183704 -94.671060 -164.555841 -99.799384 0.000000 -0.000000 0.000001 59.420385 2.878032 -4.115231 -0.000004 0.000002 -2.999490 -5.000155 -7.999928 0.000009 -47.312628 79.118746 52.339712 -77.721932 172.721796 108.841230 -0.000001 -0.000000 -0.000000 104.724470 -1.222437 4.708960 -0.000003 -0.000003 2.999999 -5.000162 7.999938 0.000001 -14.028492 -182.588565 -1.051545 -179.999991 0.000005 -0.921004 163.693680 0.101736 -0.676241 0.000001 0.000004 0.184855 68.774192 6.870424 2.200558 25.456894 -7.361239 -0.000001 -20.728540 178.496967 2.679539 -0.000003 -0.000003 -0.850700 -18.217313 -0.070550 0.606772 0.000001 -0.000001 -0.293878 70.092405 -6.837038 -2.198355 25.456955 7.355613 0.000001 
48.163303 -5.463661 83.489899 5.230950 1.273663 20.174803 -0.201117 0.338838 0.062182 3.600252 0.677912 0.121725 5.245379 0.679276 0.112701 -12.412636 45.112303 -1.285604 9.026799 -43.060648 -10.314950 -9.229725 -2.702553 -4.984218 -94.627961 -163.474376 -99.787862 0.000000 -0.000000 0.000000 61.577885 2.815960 -4.170947 -0.000003 0.000002 -2.999610 -5.000153 -7.999930 0.000009 -45.978463 78.856262 50.974002 -77.708770 173.181755 108.837992 -0.000002 -0.000001 0.000003 103.962384 -1.253306 4.710479 -0.000001 -0.000001 3.000002 -5.000162 7.999938 0.000002 -13.931493 -182.677002 -1.093714 -179.999991 0.000005 -0.921005 163.823658 0.121968 -0.668617 0.000003 0.000004 0.180071 68.735014 6.871204 2.200340 25.456895 -7.361242 -0.000001 -20.709152 178.378901 2.614061 -0.000004 -0.000003 -0.851520 -18.248303 -0.031631 0.613840 0.000001 -0.000001 -0.296191 70.129234 -6.835863 -2.198481 25.456955 7.355613 0.000002 
48.179306 -5.467941 83.503899 5.197011 1.322679 20.097504 -0.202364 0.329997 0.061958 3.597769 0.660235 0.121315 5.242886 0.661593 0.112433 -12.397633 44.888184 -1.254200 8.912138 -42.928087 -10.259207 -9.090680 -3.076333 -4.795708 -94.569194 -162.422704 -99.780909 -0.000000 0.000000 -0.000001 63.680285 2.754114 -4.224674 -0.000001 0.000002 -2.999728 -5.000151 -7.999927 0.000009 -44.662849 78.583423 49.624603 -77.703791 173.650579 108.832364 -0.000002 0.000000 0.000001 103.174686 -1.285041 4.711404 -0.000002 -0.000005 2.999998 -5.000165 7.999938 0.000004 -13.838371 -182.761601 -1.134004 -179.999991 0.000005 -0.921006 163.948254 0.140304 -0.661634 0.000001 0.000004 0.175511 68.697722 6.871893 2.200186 25.456895 -7.361242 -0.000001 -20.690579 178.266448 2.551273 -0.000004 -0.000004 -0.852312 -18.279596 0.004937 0.620610 0.000002 -0.000001 -0.298396 70.164184 -6.834781 -2.198639 25.456953 7.355614 0.000002 
48.155506 -5.481142 83.497093 5.163823 1.369488 20.021245 -0.202945 0.321009 0.061693 3.596617 0.642254 0.120847 5.241740 0.643611 0.112141 -12.404794 44.656573 -1.214642 8.817109 -42.778506 -10.197291 -8.958446 -3.452982 -4.620658 -94.493058 -161.406072 -99.778388 -0.000000 -0.000000 -0.000000 65.719452 2.692592 -4.276464 -0.000004 0.000002 -2.999830 -5.000157 -7.999928 0.000009 -43.359462 78.300305 48.284786 -77.712438 174.127354 108.823000 -0.000000 0.000001 0.000000 102.362256 -1.317825 4.711728 -0.000003 -0.000000 3.000002 -5.000164 7.999940 0.000001 -13.749505 -182.840366 -1.171502 -179.999991 0.000005 -0.921004 164.066048 0.157700 -0.654971 0.000001 0.000004 0.171245 68.662867 6.872634 2.199996 25.456890 -7.361242 0.000000 -20.671721 178.160485 2.492246 -0.000004 -0.000004 -0.853065 -18.309804 0.039056 0.626972 0.000002 -0.000001 -0.300432 70.196825 -6.833743 -2.198848 25.456953 7.355613 0.000002 
48.198204 -5.464561 83.507500 5.131685 1.412653 19.946447 -0.202735 0.311975 0.061374 3.597044 0.624190 0.120278 5.242162 0.625541 0.111768 -12.436368 44.417820 -1.166107 8.744624 -42.608144 -10.128693 -8.834393 -3.830657 -4.461550 -94.397791 -160.429833 -99.780014 0.000000 -0.000000 -0.000001 67.686874 2.631470 -4.326297 -0.000002 0.000001 -2.999921 -5.000147 -7.999927 0.000009 -42.062497 78.006880 46.948244 -77.740195 174.611040 108.809326 -0.000001 0.000000 -0.000000 101.526049 -1.351116 4.711377 -0.000003 -0.000004 3.000000 -5.000163 7.999942 0.000001 -13.665462 -182.911359 -1.205313 -179.999991 0.000005 -0.922003 164.175522 0.172217 -0.649188 0.000002 0.000004 0.167341 68.631148 6.873275 2.199887 25.456894 -7.361242 -0.000001 -20.651407 178.063838 2.437296 -0.000004 -0.000004 -0.853757 -18.337412 0.070636 0.632811 0.000002 -0.000001 -0.302237 70.226345 -6.832876 -2.198980 25.456957 7.355613 -0.000001 
48.204807 -5.494349 83.514496 5.100902 1.450790 19.873308 -0.201614 0.303005 0.060966 3.599292 0.606255 0.119572 5.244416 0.607602 0.111290 -12.494537 44.172271 -1.107740 8.697487 -42.412835 -10.053297 -8.719931 -4.207545 -4.320960 -94.281657 -159.499397 -99.785717 -0.000000 0.000000 0.000001 69.574397 2.570789 -4.374171 -0.000004 0.000002 -2.999980 -5.000154 -7.999927 0.000010 -40.766872 77.703046 45.609538 -77.792248 175.100956 108.788391 -0.000001 0.000000 0.000001 100.667071 -1.385234 4.710320 -0.000004 -0.000003 3.000001 -5.000161 7.999937 0.000002 -13.587026 -182.973569 -1.234225 -179.999991 0.000005 -0.922001 164.275311 0.184819 -0.643970 0.000002 0.000004 0.163866 68.603315 6.873869 2.199732 25.456897 -7.361242 0.000000 -20.628616 177.977436 2.387511 -0.000003 -0.000004 -0.854380 -18.360628 0.099582 0.638009 0.000001 -0.000001 -0.303753 70.252177 -6.832075 -2.199252 25.456955 7.355611 0.000002 
48.221603 -5.488911 83.517395 5.071796 1.482482 19.802238 -0.199456 0.294207 0.060458 3.603619 0.588664 0.118686 5.248728 0.590004 0.110666 -12.581465 43.920435 -1.038789 8.678520 -42.188798 -9.970477 -8.616433 -4.581851 -4.201500 -94.142779 -158.619997 -99.794869 0.000000 -0.000000 0.000001 71.373489 2.510602 -4.419990 -0.000001 0.000002 -3.000001 -5.000148 -7.999927 0.000010 -39.467695 77.388516 44.263396 -77.874286 175.595790 108.760381 0.000001 -0.000000 -0.000001 99.786038 -1.419881 4.707563 -0.000003 -0.000002 2.999999 -5.000160 7.999940 -0.000001 -13.514546 -183.023101 -1.257796 -179.999991 0.000005 -0.922005 164.364008 0.195490 -0.639283 0.000001 0.000004 0.160886 68.579798 6.874450 2.199504 25.456895 -7.361242 -0.000001 -20.602103 177.903123 2.343574 -0.000003 -0.000004 -0.854919 -18.378246 0.125803 0.642435 0.000001 -0.000001 -0.304909 70.273713 -6.831432 -2.199415 25.456953 7.355613 0.000002 
48.235405 -5.516250 83.524002 5.044111 1.511035 19.735944 -0.196157 0.285178 0.059875 3.610228 0.570612 0.117697 5.255341 0.571941 0.109986 -12.700388 43.656599 -0.961858 8.689504 -41.938342 -9.881237 -8.521350 -4.953337 -4.099236 -93.982904 -157.779419 -99.805798 0.000000 -0.000000 -0.000000 73.094472 2.450670 -4.462014 -0.000002 0.000001 -3.000001 -5.000152 -7.999927 0.000009 -38.170560 77.061930 42.915817 -77.975502 176.104816 108.727002 -0.000001 -0.000001 0.000000 98.877835 -1.455432 4.703996 -0.000002 -0.000003 3.000000 -5.000161 7.999938 -0.000000 -13.448979 -183.064766 -1.276073 -179.999991 0.000005 -0.922003 164.442501 0.202303 -0.635679 0.000001 0.000004 0.158368 68.560367 6.874944 2.199304 25.456895 -7.361244 -0.000000 -20.575962 177.840026 2.304899 -0.000005 -0.000004 -0.855352 -18.393561 0.148609 0.646183 0.000001 -0.000001 -0.305791 70.291458 -6.830867 -2.199728 25.456952 7.355614 0.000000 
48.268608 -5.488749 83.519493 5.017301 1.540515 19.676069 -0.191777 0.275499 0.059257 3.618998 0.551258 0.116717 5.264102 0.552583 0.109379 -12.850624 43.376042 -0.880648 8.728358 -41.667525 -9.786603 -8.431236 -5.324070 -4.008425 -93.805401 -156.962364 -99.816938 0.000000 0.000000 -0.000000 74.754378 2.391049 -4.498709 -0.000006 0.000001 -3.000001 -5.000150 -7.999927 0.000009 -36.888260 76.722115 41.580457 -78.082094 176.635850 108.692345 -0.000003 0.000001 0.000001 97.937345 -1.492201 4.701531 -0.000003 -0.000003 3.000002 -5.000160 7.999938 0.000000 -13.390150 -183.100556 -1.291041 -179.999991 0.000005 -0.922003 164.512906 0.206229 -0.632850 0.000002 0.000004 0.156207 68.543756 6.875374 2.199320 25.456897 -7.361242 0.000000 -20.554454 177.783540 2.270949 -0.000005 -0.000004 -0.855692 -18.411082 0.167602 0.649436 0.000002 -0.000002 -0.306522 70.306607 -6.830475 -2.199926 25.456960 7.355610 0.000002 
48.282600 -5.504122 83.523895 4.991254 1.570612 19.621250 -0.186453 0.265252 0.058625 3.629657 0.530770 0.115742 5.274757 0.532089 0.108837 -13.028446 43.080701 -0.796004 8.791868 -41.378249 -9.687377 -8.346177 -5.695768 -3.929030 -93.611001 -156.170144 -99.828788 -0.000000 0.000000 -0.000000 76.355142 2.332120 -4.530407 -0.000004 0.000001 -3.000001 -5.000154 -7.999928 0.000009 -35.626120 76.368864 40.262917 -78.194437 177.185844 108.656193 -0.000001 0.000000 -0.000003 96.966024 -1.530228 4.700130 -0.000002 -0.000004 3.000001 -5.000162 7.999938 0.000000 -13.337377 -183.132357 -1.302709 -179.999991 0.000005 -0.922001 164.576099 0.207252 -0.630818 0.000001 0.000004 0.154365 68.529665 6.875796 2.199376 25.456899 -7.361243 -0.000000 -20.536784 177.732696 2.241451 -0.000005 -0.000003 -0.855950 -18.430396 0.183128 0.652244 0.000001 -0.000001 -0.307121 70.319530 -6.830097 -2.200167 25.456952 7.355616 0.000001 
